<?xml version="1.0" encoding="UTF-8" standalone="no"?>
<svg
   xmlns:dc="http://purl.org/dc/elements/1.1/"
   xmlns:cc="http://creativecommons.org/ns#"
   xmlns:rdf="http://www.w3.org/1999/02/22-rdf-syntax-ns#"
   xmlns:svg="http://www.w3.org/2000/svg"
   xmlns="http://www.w3.org/2000/svg"
   xmlns:sodipodi="http://sodipodi.sourceforge.net/DTD/sodipodi-0.dtd"
   xmlns:inkscape="http://www.inkscape.org/namespaces/inkscape"
   version="1.0"
   width="1024.000000pt"
   height="768.000000pt"
   viewBox="0 0 1024.000000 768.000000"
   preserveAspectRatio="xMidYMid meet"
   id="svg3807"
   sodipodi:docname="04-koop-full.svg"
   inkscape:version="0.92.5 (2060ec1f9f, 2020-04-08)">
  <metadata
     id="metadata3813">
    <rdf:RDF>
      <cc:Work
         rdf:about="">
        <dc:format>image/svg+xml</dc:format>
        <dc:type
           rdf:resource="http://purl.org/dc/dcmitype/StillImage" />
      </cc:Work>
    </rdf:RDF>
  </metadata>
  <defs
     id="defs3811" />
  <sodipodi:namedview
     pagecolor="#ffffff"
     bordercolor="#666666"
     borderopacity="1"
     objecttolerance="10"
     gridtolerance="10"
     guidetolerance="10"
     inkscape:pageopacity="0"
     inkscape:pageshadow="2"
     inkscape:window-width="1366"
     inkscape:window-height="705"
     id="namedview3809"
     showgrid="false"
     inkscape:zoom="0.61112256"
     inkscape:cx="639.22262"
     inkscape:cy="663.11479"
     inkscape:window-x="-8"
     inkscape:window-y="-8"
     inkscape:window-maximized="1"
     inkscape:current-layer="svg3807" />
  <g
     transform="translate(0.000000,768.000000) scale(0.100000,-0.100000)"
     fill="#000000"
     stroke="none"
     id="g3805">
    <path
       d="M8690 5695 l0 -75 34 0 c66 0 212 -31 264 -56 34 -17 65 -41 84 -68 61 -84 61 -81 69 -461 8 -385 15 -439 77 -562 72 -141 222 -236 455 -288 74 -16 77 -18 77 -45 0 -26 -5 -29 -52 -40 -96 -23 -212 -62 -273 -92 -81 -41 -174 -136 -213 -219 -56 -117 -64 -178 -71 -559 -6 -334 -7 -347 -30 -398 -29 -65 -104 -134 -169 -156 -26 -9 -93 -22 -149 -28 l-103 -12 0 -69 0 -69 93 6 c426 30 589 127 663 397 22 80 25 327 6 539 -35 399 84 546 472 586 l66 7 0 107 0 107 -62 7 c-35 4 -100 16 -146 26 -279 66 -360 203 -329 559 18 213 15 441 -6 519 -70 259 -235 371 -592 401 -183 16 -165 23 -165 -64z"
       id="path3795" />
    <path
       d="M1540 5729 c-344 -31 -518 -154 -581 -409 -16 -64 -17 -269 -5 -556 9 -182 8 -194 -13 -264 -20 -64 -31 -81 -84 -135 -46 -45 -78 -68 -121 -84 -68 -25 -163 -46 -253 -57 l-63 -7 0 -107 0 -107 66 -7 c274 -28 412 -116 460 -292 15 -57 16 -87 8 -252 -13 -283 -11 -508 5 -572 49 -199 190 -332 397 -375 61 -12 285 -35 345 -35 17 0 19 8 19 70 l0 70 -37 0 c-53 0 -159 18 -214 36 -87 28 -151 94 -184 189 -16 43 -19 103 -25 410 -6 358 -6 361 -33 438 -74 214 -209 316 -514 387 -48 11 -53 15 -53 39 0 26 4 28 108 54 261 66 403 183 468 387 14 46 18 114 24 410 8 389 12 418 70 499 53 73 124 103 293 124 l97 11 0 73 0 73 -42 -1 c-24 -1 -86 -6 -138 -10z"
       id="path3797" />
    <path
       d="M2485 5399 c-456 -62 -819 -370 -970 -822 -182 -544 -18 -1196 382 -1517 395 -318 972 -345 1394 -65 271 181 463 488 525 840 23 132 23 404 1 530 -97 543 -448 923 -941 1021 -93 18 -303 25 -391 13z m310 -164 c116 -24 227 -87 320 -180 117 -118 188 -251 240 -449 44 -172 58 -315 52 -561 -6 -302 -41 -473 -132 -660 -135 -277 -357 -425 -635 -425 -282 0 -495 140 -634 417 -97 193 -137 410 -137 728 0 341 61 609 183 812 70 115 202 235 311 282 113 49 298 64 432 36z"
       id="path3799" />
    <path
       d="M5390 5390 c-165 -14 -348 -64 -485 -132 -153 -77 -334 -217 -417 -323 -215 -276 -309 -548 -295 -855 23 -520 369 -971 872 -1139 263 -88 536 -95 789 -20 92 28 225 79 231 89 3 5 -4 37 -16 72 -46 138 -121 254 -208 323 -28 22 -51 44 -51 50 0 5 16 20 34 32 19 12 49 44 67 70 18 26 34 50 35 52 6 7 142 -22 234 -51 107 -34 198 -77 286 -136 54 -37 60 -39 77 -24 27 24 21 36 -41 90 -117 101 -294 190 -444 220 l-77 16 -6 46 c-9 69 -34 129 -71 170 -19 21 -34 40 -34 44 0 3 62 6 138 6 225 0 441 -40 647 -119 44 -17 83 -31 87 -31 36 0 -58 68 -177 127 -123 62 -341 122 -519 144 -93 11 -295 7 -372 -7 l-31 -6 -37 109 c-20 59 -39 115 -42 124 -4 12 12 23 68 47 305 130 664 134 1036 11 51 -17 95 -29 98 -26 22 22 -156 120 -306 168 -253 81 -546 72 -825 -27 -147 -53 -139 -53 -159 -4 -15 37 -55 103 -102 168 -16 22 -16 24 37 73 117 108 284 189 474 228 138 28 316 44 442 39 l105 -4 -28 23 c-40 31 -92 38 -299 38 -130 0 -205 -5 -270 -18 -203 -40 -393 -116 -532 -213 l-63 -44 -46 36 c-26 19 -64 44 -86 55 -22 11 -38 27 -38 37 1 30 92 139 174 206 44 36 124 89 177 116 112 57 267 120 301 121 l23 0 -23 9 c-20 9 -73 15 -202 24 -25 2 -83 0 -130 -4z m-338 -652 c106 -56 195 -177 217 -294 11 -56 4 -124 -11 -124 -6 0 -47 7 -92 17 -94 19 -143 13 -183 -22 -33 -27 -36 -26 92 -50 158 -31 300 -81 339 -120 22 -22 12 -40 -69 -126 -91 -96 -95 -109 -44 -159 21 -21 39 -40 39 -42 0 -2 4 -17 9 -35 8 -27 5 -37 -21 -73 -38 -51 -68 -129 -68 -176 0 -19 9 -52 20 -74 45 -87 160 -140 385 -176 38 -6 39 -7 15 -16 -40 -15 -633 -4 -700 14 -95 25 -165 71 -195 128 -18 34 -33 141 -41 286 l-7 121 -52 17 c-65 20 -105 51 -105 80 0 40 76 179 141 260 35 43 72 91 82 106 l18 28 -38 36 c-33 31 -38 41 -37 78 0 24 10 61 22 83 19 38 207 265 219 265 3 0 32 -14 65 -32z m695 -803 c72 -36 123 -115 123 -189 0 -127 -120 -236 -246 -223 -103 11 -182 76 -204 169 -45 185 151 330 327 243z"
       id="path3801" />
    <path
       d="M7000 5293 l0 -59 107 -17 c134 -21 191 -48 218 -102 20 -39 20 -60 20 -1015 0 -902 -1 -977 -17 -1006 -39 -71 -91 -94 -250 -110 l-68 -6 0 -59 0 -59 535 0 535 0 0 58 0 58 -112 12 c-143 16 -194 39 -225 102 -23 44 -23 49 -23 451 l0 406 228 6 c292 7 404 30 572 119 195 103 322 257 376 458 27 100 26 294 -3 385 -60 190 -233 335 -481 403 l-97 26 -657 4 -658 3 0 -58z m1123 -98 c232 -49 358 -237 360 -535 1 -233 -90 -398 -265 -485 -101 -49 -186 -65 -355 -65 l-143 0 0 550 0 550 168 0 c106 0 192 -6 235 -15z"
       id="path3803" />
  </g>
  <path
     style="fill:#2b2200;stroke-width:1.63633299"
     d="m 701.82098,637.75799 c -45.91787,-8.29611 -87.29689,-34.59985 -112.69791,-71.63963 -9.22481,-13.45162 -20.28142,-37.45229 -24.29558,-52.7386 -4.40252,-16.76523 -5.95876,-48.61147 -3.21082,-65.70502 5.46441,-33.99141 24.47875,-69.49947 50.18363,-93.71469 24.6474,-23.21903 52.31168,-37.50274 87.3121,-45.08127 14.42341,-3.12306 53.41394,-3.76175 58.24943,-0.95417 1.97245,1.14524 2.28658,1.82572 0.85734,1.85725 -4.48173,0.0989 -34.01859,13.5851 -46.0161,21.01049 -18.53071,11.46887 -39.61654,34.09206 -36.28893,38.93475 1.38221,2.01152 21.49677,15.37584 23.14211,15.37584 0.66399,0 6.22543,-3.29595 12.35875,-7.32434 20.28149,-13.32092 51.12705,-24.16803 77.60621,-27.29089 19.78505,-2.33338 55.10963,-1.03198 61.39626,2.26191 4.29699,2.25143 2.91153,2.47842 -20.5772,3.37127 -48.46373,1.84219 -78.39653,10.84505 -103.95193,31.26554 -12.31271,9.83869 -12.63146,10.72148 -6.91937,19.16336 2.67538,3.95394 6.67803,10.68664 8.89479,14.96156 2.28091,4.39869 5.17717,7.77258 6.67224,7.77258 1.453,0 8.99877,-2.18268 16.76841,-4.85041 23.27731,-7.99232 36.55756,-10.25927 60.71497,-10.3641 24.73954,-0.10736 37.45015,2.10894 58.11685,10.13359 13.51596,5.24811 31.09444,14.59505 29.82875,15.86075 -0.39678,0.39678 -9.98993,-1.8188 -21.31808,-4.9235 -38.19023,-10.46678 -71.32455,-11.59088 -103.21349,-3.50159 -18.33223,4.65035 -33.77635,11.19954 -33.77635,14.3231 0,1.17254 2.2838,8.98704 5.0751,17.36556 l 5.07509,15.23365 4.962,-1.08983 c 10.43511,-2.29194 49.31031,-1.3531 64.19059,1.5502 18.64204,3.63727 43.08765,11.43157 55.58358,17.72242 10.24149,5.15589 22.58323,12.8843 21.81005,13.65747 -0.25195,0.25195 -7.69211,-2.06233 -16.53369,-5.14285 -24.95369,-8.69418 -44.44721,-12.22267 -73.48215,-13.30093 -15.76285,-0.58536 -25.77225,-0.35662 -25.77225,0.589 0,0.85034 2.12974,4.45245 4.73275,8.00468 4.30893,5.88023 6.73592,12.24034 9.04791,23.71068 0.73033,3.62338 2.16803,4.43441 11.11964,6.27281 20.41885,4.19342 50.53811,19.88374 62.29804,32.45351 3.7636,4.02276 4.17044,5.20403 2.32104,6.73889 -1.73761,1.44209 -4.05452,0.70327 -10.2907,-3.28155 -13.15132,-8.40347 -30.31279,-15.70362 -47.28055,-20.11222 -8.7687,-2.27829 -17.15108,-4.11833 -18.62752,-4.08896 -1.47643,0.0293 -7.00654,4.84952 -12.28911,10.71147 l -9.60469,10.65807 10.55085,10.96994 c 5.80296,6.03348 12.44299,14.28352 14.75562,18.33345 6.2654,10.97217 11.89434,27.66224 9.97631,29.58027 -3.09912,3.09911 -33.5733,13.00315 -47.46267,15.42525 -17.21951,3.00283 -42.84865,2.93244 -59.99132,-0.16476 z m 56.98793,-49.70178 c 0.5399,-0.87361 -0.70525,-1.93595 -2.76701,-2.36076 -26.08387,-5.37444 -37.13505,-9.30203 -44.58948,-15.8471 -10.71466,-9.4076 -11.56966,-22.1271 -2.45363,-36.5016 6.22419,-9.81451 6.20664,-15.66748 -0.0684,-22.81434 -2.69995,-3.07506 -4.909,-6.85826 -4.909,-8.40709 0,-1.54882 4.4181,-7.9366 9.81799,-14.1951 5.3999,-6.25849 9.81801,-12.32751 9.81801,-13.48674 0,-6.63361 -24.29797,-16.12782 -54.81083,-21.41684 l -6.539,-1.13346 3.8567,-3.12296 c 4.37895,-3.54586 16.00351,-4.11989 27.89998,-1.37773 9.11849,2.10182 10.37269,0.54645 9.40674,-11.66562 -1.33408,-16.86631 -14.26373,-35.88022 -30.35403,-44.63766 l -8.12146,-4.42026 -6.67743,7.1243 c -10.181,10.86234 -21.56221,25.88586 -24.05733,31.75637 -3.52619,8.29641 -2.78132,13.6541 2.68199,19.2908 l 4.91997,5.07613 -11.05622,14.64878 c -13.29044,17.60897 -20.50247,31.39904 -19.7695,37.80108 0.4327,3.77947 2.20257,5.48947 9.51312,9.19136 4.93983,2.50141 9.43355,5.81499 9.98604,7.3635 0.55249,1.54851 1.48942,10.54715 2.08208,19.99697 1.85115,29.5165 4.35893,35.22521 18.96255,43.1664 6.27647,3.41303 12.10729,5.04205 21.14454,5.90737 19.30062,1.84804 84.95086,1.897 86.0836,0.0641 z m 9.97493,-37.76232 c 12.69014,-7.84292 17.52721,-25.43624 10.68228,-38.85341 -10.9606,-21.48455 -44.12629,-21.34909 -55.28308,0.22579 -3.33843,6.4558 -3.38842,20.14194 -0.0967,26.47209 8.1726,15.71641 29.53561,21.52611 44.69751,12.15553 z"
     id="path3815"
     inkscape:connector-curvature="0"
     transform="scale(0.74999999)" />
  <path
     style="fill:#2b2200;stroke-width:1.63633299"
     d="m 1158.922,681.526 c 0,-4.63565 0.683,-8.42846 1.5179,-8.42846 7.3181,0 28.5742,-4.16415 34.461,-6.75102 9.0018,-3.95572 13.8232,-8.32981 19.1344,-17.35928 3.9903,-6.78368 4.1063,-7.94908 5.5393,-55.63532 1.8821,-62.63302 4.1184,-71.90643 21.7406,-90.1565 10.1914,-10.55449 17.9113,-14.6816 40.3573,-21.57518 9.4358,-2.8979 17.7814,-5.84423 18.5457,-6.54739 0.7644,-0.70317 0.956,-2.64542 0.4257,-4.31611 -0.7028,-2.21429 -4.7522,-4.01689 -14.9399,-6.65052 -35.7233,-9.23482 -54.9649,-25.92283 -62.1279,-53.88267 -1.695,-6.61638 -2.9833,-24.57271 -4.0377,-56.28138 -0.8518,-25.61078 -2.3687,-49.37417 -3.3711,-52.80755 -4.197,-14.37583 -21.1528,-24.05647 -46.7237,-26.67629 l -10.6764,-1.09383 0.4865,-8.35685 0.4864,-8.35685 15.1422,0.38851 c 27.5518,0.70692 50.642,7.53954 63.3848,18.7562 9.4844,8.34852 14.4093,15.99655 18.9366,29.4074 3.3216,9.83912 3.4675,12.80547 2.9244,59.44587 -0.6306,54.15141 -0.1618,57.84034 8.8818,69.88442 6.9766,9.29128 22.3722,17.00738 40.5397,20.31804 7.6031,1.38551 15.5101,2.84823 17.571,3.25049 3.5883,0.70037 3.727,1.29802 3.2727,14.09899 l -0.4745,13.36761 -13.9254,2.00605 c -28.4425,4.09735 -43.136,12.63205 -51.2562,29.7722 l -5.1808,10.93549 v 54.81716 54.81715 l -5.0769,10.71368 c -7.0704,14.92036 -13.7523,21.86717 -27.4014,28.48769 -13.3893,6.49448 -30.732,10.37841 -52.821,11.8294 l -15.3351,1.00732 z"
     id="path3817"
     inkscape:connector-curvature="0"
     transform="scale(0.74999999)" />
  <path
     style="fill:#2b0000;stroke-width:1.63633299"
     d="m 213.12151,693.19541 c -18.86198,-1.54385 -40.54776,-5.71502 -48.39865,-9.30928 -15.41326,-7.05642 -27.48762,-20.57937 -34.51862,-38.65987 -2.49124,-6.40634 -2.85173,-14.08552 -2.91641,-62.12703 l -0.0738,-54.81716 -4.04754,-7.92423 c -8.11176,-15.88112 -22.57457,-24.14943 -49.794709,-28.46732 l -17.33824,-2.75035 V 475.78674 462.4333 l 9.408914,-1.07567 c 11.963239,-1.36773 30.816364,-6.22677 37.390135,-9.63665 8.8813,-4.6068 19.94323,-17.27406 22.92533,-26.25233 2.42685,-7.30655 2.6279,-13.2767 1.66003,-49.29365 -1.57616,-58.65283 1.18867,-74.10209 16.24371,-90.76622 13.6924,-15.15585 33.75441,-22.22838 72.32343,-25.49643 l 11.86341,-1.00522 v 9.06774 c 0,10.24185 1.66875,9.17763 -19.30525,12.31161 -21.35601,3.19106 -33.52225,12.07081 -37.98619,27.72488 -0.92709,3.2511 -2.3969,28.15272 -3.26625,55.33692 -1.32997,41.58749 -2.06269,50.6945 -4.62031,57.42559 -8.82137,23.21596 -27.27664,38.20022 -57.04082,46.31275 -15.873097,4.32639 -18.505812,5.69104 -18.505812,9.59243 0,2.37393 2.201355,3.72021 9.408914,5.75423 36.589658,10.32585 51.479678,19.95679 61.685588,39.89858 7.06507,13.80476 7.60306,17.90855 9.07459,69.22152 1.3279,46.30449 1.71783,50.82867 5.0481,58.57008 6.71256,15.60378 20.26927,23.44167 44.4294,25.68711 l 11.07804,1.02959 v 8.76486 c 0,8.08329 -0.28629,8.74261 -3.68175,8.47897 -2.02496,-0.15725 -6.99532,-0.55709 -11.04524,-0.88858 z"
     id="path3819"
     inkscape:connector-curvature="0"
     transform="scale(0.74999999)" />
  <path
     style="fill:#2b0000;stroke-width:1.63633299"
     d="m 1159.2414,681.80475 0.4987,-7.65611 16.3634,-3.08499 c 9.4092,-1.77394 19.21,-4.74447 23.0617,-6.9898 7.0636,-4.11773 14.3005,-12.43712 17.0037,-19.54709 0.8886,-2.33717 2.3811,-23.18937 3.3167,-46.33822 2.676,-66.2103 4.7992,-76.03691 20.0823,-92.94163 8.8241,-9.76035 20.6475,-16.34208 42.079,-23.42414 8.5499,-2.82528 16.6497,-5.84065 17.9997,-6.70079 4.8801,-3.10942 -0.8239,-7.16342 -17.3235,-12.31226 -29.3616,-9.16251 -44.3666,-20.20755 -53.2541,-39.19979 -6.2613,-13.38012 -7.347,-21.74635 -9.5626,-73.68815 -0.9982,-23.39956 -2.5266,-45.22504 -3.3966,-48.50106 -3.4832,-13.11633 -20.0421,-23.21408 -43.1347,-26.30384 l -14.0531,-1.88029 0.025,-5.8384 c 0.044,-10.15099 0.8444,-10.51785 20.6737,-9.47031 46.7959,2.47214 71.9585,19.98233 79.2899,55.17641 1.2483,5.9927 1.613,22.12182 1.0913,48.27182 -0.4309,21.5996 -0.1618,44.35046 0.5981,50.55747 2.9745,24.29781 17.1399,36.5814 49.3106,42.75998 20.713,3.97806 20.8263,4.05719 20.8263,14.53892 0,15.3147 -0.9544,16.40198 -16.4844,18.77936 -26.9775,4.12979 -41.4897,13.15775 -50.5701,31.45937 l -4.6607,9.39358 -0.1508,55.34395 -0.1507,55.34398 -4.8375,9.89188 c -8.4781,17.33648 -22.3676,27.81213 -45.0526,33.97922 -9.8255,2.67115 -34.5048,5.99837 -44.6797,6.02363 l -5.4077,0.0134 z"
     id="path3821"
     inkscape:connector-curvature="0"
     transform="scale(0.74999999)" />
  <path
     style="fill:#2b0000;stroke-width:1.63633299"
     d="m 709.74857,638.70865 c -78.06645,-9.95118 -140.52013,-72.72154 -148.17312,-148.92447 -3.31768,-33.03503 0.85788,-57.27155 14.83292,-86.0958 22.13018,-45.64465 59.19915,-76.34205 110.43154,-91.4501 12.15591,-3.58468 19.18188,-4.49864 40.24433,-5.23507 14.18938,-0.49612 26.69905,-0.23086 28.17927,0.59751 2.05547,1.1503 -0.96213,3.05956 -13.24484,8.38014 -8.74872,3.78974 -20.69305,9.65907 -26.54294,13.04296 -12.74116,7.37016 -39.27199,32.85182 -39.27199,37.71896 0,2.11894 2.86278,5.43272 7.77258,8.99708 14.41041,10.4615 14.01241,10.41597 26.29557,3.00812 21.40945,-12.91183 42.6276,-21.16886 68.20266,-26.54104 17.64096,-3.70558 74.59643,-2.39761 72.09142,1.65557 -0.43379,0.70191 -10.57286,1.74088 -22.53124,2.30883 -36.83795,1.74958 -63.42792,8.05501 -85.34974,20.23948 -11.27769,6.26831 -27.20926,19.22269 -27.20926,22.12457 0,3.21512 16.59674,30.74857 18.53172,30.74353 1.05735,-0.003 10.03916,-2.49948 19.95958,-5.54828 25.91789,-7.96525 39.25715,-9.72566 66.54693,-8.78236 19.61492,0.67801 25.67066,1.53744 37.32274,5.29688 14.35311,4.63091 42.21199,17.60404 39.64262,18.4605 -0.79802,0.26601 -10.59633,-1.75429 -21.77403,-4.48956 -39.32622,-9.62342 -71.19151,-10.13953 -103.37748,-1.6744 -15.96239,4.19823 -30.67075,10.63414 -30.67075,13.42055 0,1.17228 2.27084,8.94767 5.0463,17.27865 4.87533,14.634 5.19412,15.11821 9.40892,14.2906 9.55316,-1.87581 48.14813,-0.89581 64.90693,1.64812 6.85002,1.0398 24.24828,6.01556 38.03175,10.87678 14.23289,5.01972 38.90548,17.46922 37.46852,18.90616 -0.41271,0.41272 -7.748,-1.49114 -16.30066,-4.2308 -19.267,-6.17178 -33.84727,-9.43659 -51.79319,-11.59753 -14.43624,-1.73832 -45.86025,-2.29949 -45.86025,-0.81897 0,0.46788 1.92099,3.89374 4.26887,7.61301 2.34788,3.71929 5.84554,11.60581 7.77258,17.52562 l 3.50372,10.7633 13.09066,3.60177 c 23.92201,6.58192 61.36249,28.46347 61.36249,35.86243 0,3.55964 -1.91623,2.97065 -19.17511,-5.89391 -16.42559,-8.43657 -33.30399,-14.47809 -50.05551,-17.91708 -9.42213,-1.93429 -9.54068,-1.91104 -13.68682,2.68457 -2.3003,2.54967 -6.77843,7.34954 -9.95141,10.66639 l -5.76903,6.03062 10.95607,11.96904 c 12.29142,13.42785 22.55556,32.16574 22.85424,41.72203 0.18785,6.0103 -0.0288,6.24501 -9.13144,9.89194 -26.83424,10.75105 -61.41344,15.37179 -88.85612,11.87366 z m 48.02059,-50.44553 c 1.5158,-1.00535 -1.54767,-2.37331 -9.81799,-4.38411 -28.44812,-6.91672 -37.61315,-11.9086 -42.61199,-23.20931 -3.7712,-8.52542 -3.07248,-13.36233 3.94747,-27.32633 5.59423,-11.12798 5.33363,-16.01936 -1.31809,-24.74021 -4.26742,-5.59487 -4.27292,-5.64092 -1.2531,-10.50112 1.66821,-2.68486 6.24495,-8.94909 10.17054,-13.92048 4.44561,-5.62995 6.76531,-10.00862 6.15075,-11.61014 -1.81279,-4.72408 -25.0215,-13.5388 -50.92384,-19.34101 l -9.818,-2.19926 6.54533,-2.91322 c 5.57416,-2.48097 8.44253,-2.69214 19.33165,-1.42324 15.50848,1.80721 16.73118,0.91158 15.29622,-11.20443 -2.02499,-17.09787 -16.26033,-37.3601 -31.82685,-45.30154 l -6.65275,-3.39398 -9.52846,10.40308 c -13.57604,14.82217 -21.94995,27.60241 -22.94458,35.01797 -0.72423,5.39954 -0.10851,7.20985 4.0714,11.9705 l 4.92467,5.60889 -8.37963,11.42579 c -11.86178,16.17377 -22.38149,35.12141 -22.38149,40.31259 0,3.64295 1.7037,5.45601 9.68003,10.30137 10.72555,6.51544 10.42162,5.77675 12.49011,30.35597 1.41658,16.83272 3.54682,25.84215 7.38463,31.23186 4.72577,6.63673 18.91003,12.98618 32.07204,14.35676 17.00715,1.77098 82.88838,2.14408 85.39193,0.4836 z m 8.8801,-37.00603 c 11.00765,-5.22347 18.40528,-21.83452 15.27615,-34.30196 -1.36381,-5.43382 -9.97063,-15.1522 -16.33289,-18.44226 -11.96221,-6.18589 -30.98513,-1.46679 -38.9013,9.65046 -5.36615,7.53608 -6.19774,24.50759 -1.56273,31.89326 8.33648,13.28375 26.6946,18.23598 41.52077,11.2005 z"
     id="path3823"
     inkscape:connector-curvature="0"
     transform="scale(0.74999999)" />
</svg>
