<?xml version="1.0" encoding="UTF-8" standalone="no"?>
<svg
   xmlns:dc="http://purl.org/dc/elements/1.1/"
   xmlns:cc="http://creativecommons.org/ns#"
   xmlns:rdf="http://www.w3.org/1999/02/22-rdf-syntax-ns#"
   xmlns:svg="http://www.w3.org/2000/svg"
   xmlns="http://www.w3.org/2000/svg"
   xmlns:sodipodi="http://sodipodi.sourceforge.net/DTD/sodipodi-0.dtd"
   xmlns:inkscape="http://www.inkscape.org/namespaces/inkscape"
   version="1.0"
   width="957pt"
   height="329.8858pt"
   viewBox="0 0 957 329.8858"
   preserveAspectRatio="xMidYMid meet"
   id="svg3807"
   sodipodi:docname="04-koop-full.svg"
   inkscape:version="0.92.5 (2060ec1f9f, 2020-04-08)">
  <metadata
     id="metadata3813">
    <rdf:RDF>
      <cc:Work
         rdf:about="">
        <dc:format>image/svg+xml</dc:format>
        <dc:type
           rdf:resource="http://purl.org/dc/dcmitype/StillImage" />
      </cc:Work>
    </rdf:RDF>
  </metadata>
  <defs
     id="defs3811" />
  <sodipodi:namedview
     pagecolor="#ffffff"
     bordercolor="#666666"
     borderopacity="1"
     objecttolerance="10"
     gridtolerance="10"
     guidetolerance="10"
     inkscape:pageopacity="0"
     inkscape:pageshadow="2"
     inkscape:window-width="1366"
     inkscape:window-height="705"
     id="namedview3809"
     showgrid="false"
     inkscape:zoom="0.61112256"
     inkscape:cx="583.35684"
     inkscape:cy="101.42218"
     inkscape:window-x="-8"
     inkscape:window-y="-8"
     inkscape:window-maximized="1"
     inkscape:current-layer="svg3807" />
  <g
     transform="matrix(0.1,0,0,-0.1,-42,576.8858)"
     id="g3805"
     style="fill:#000000;stroke:none">
    <path
       d="m 8690,5695 v -75 h 34 c 66,0 212,-31 264,-56 34,-17 65,-41 84,-68 61,-84 61,-81 69,-461 8,-385 15,-439 77,-562 72,-141 222,-236 455,-288 74,-16 77,-18 77,-45 0,-26 -5,-29 -52,-40 -96,-23 -212,-62 -273,-92 -81,-41 -174,-136 -213,-219 -56,-117 -64,-178 -71,-559 -6,-334 -7,-347 -30,-398 -29,-65 -104,-134 -169,-156 -26,-9 -93,-22 -149,-28 l -103,-12 v -69 -69 l 93,6 c 426,30 589,127 663,397 22,80 25,327 6,539 -35,399 84,546 472,586 l 66,7 v 107 107 l -62,7 c -35,4 -100,16 -146,26 -279,66 -360,203 -329,559 18,213 15,441 -6,519 -70,259 -235,371 -592,401 -183,16 -165,23 -165,-64 z"
       id="path3795"
       inkscape:connector-curvature="0" />
    <path
       d="m 1540,5729 c -344,-31 -518,-154 -581,-409 -16,-64 -17,-269 -5,-556 9,-182 8,-194 -13,-264 -20,-64 -31,-81 -84,-135 -46,-45 -78,-68 -121,-84 -68,-25 -163,-46 -253,-57 l -63,-7 v -107 -107 l 66,-7 c 274,-28 412,-116 460,-292 15,-57 16,-87 8,-252 -13,-283 -11,-508 5,-572 49,-199 190,-332 397,-375 61,-12 285,-35 345,-35 17,0 19,8 19,70 v 70 h -37 c -53,0 -159,18 -214,36 -87,28 -151,94 -184,189 -16,43 -19,103 -25,410 -6,358 -6,361 -33,438 -74,214 -209,316 -514,387 -48,11 -53,15 -53,39 0,26 4,28 108,54 261,66 403,183 468,387 14,46 18,114 24,410 8,389 12,418 70,499 53,73 124,103 293,124 l 97,11 v 73 73 l -42,-1 c -24,-1 -86,-6 -138,-10 z"
       id="path3797"
       inkscape:connector-curvature="0" />
    <path
       d="m 2485,5399 c -456,-62 -819,-370 -970,-822 -182,-544 -18,-1196 382,-1517 395,-318 972,-345 1394,-65 271,181 463,488 525,840 23,132 23,404 1,530 -97,543 -448,923 -941,1021 -93,18 -303,25 -391,13 z m 310,-164 c 116,-24 227,-87 320,-180 117,-118 188,-251 240,-449 44,-172 58,-315 52,-561 -6,-302 -41,-473 -132,-660 -135,-277 -357,-425 -635,-425 -282,0 -495,140 -634,417 -97,193 -137,410 -137,728 0,341 61,609 183,812 70,115 202,235 311,282 113,49 298,64 432,36 z"
       id="path3799"
       inkscape:connector-curvature="0" />
    <path
       d="m 5390,5390 c -165,-14 -348,-64 -485,-132 -153,-77 -334,-217 -417,-323 -215,-276 -309,-548 -295,-855 23,-520 369,-971 872,-1139 263,-88 536,-95 789,-20 92,28 225,79 231,89 3,5 -4,37 -16,72 -46,138 -121,254 -208,323 -28,22 -51,44 -51,50 0,5 16,20 34,32 19,12 49,44 67,70 18,26 34,50 35,52 6,7 142,-22 234,-51 107,-34 198,-77 286,-136 54,-37 60,-39 77,-24 27,24 21,36 -41,90 -117,101 -294,190 -444,220 l -77,16 -6,46 c -9,69 -34,129 -71,170 -19,21 -34,40 -34,44 0,3 62,6 138,6 225,0 441,-40 647,-119 44,-17 83,-31 87,-31 36,0 -58,68 -177,127 -123,62 -341,122 -519,144 -93,11 -295,7 -372,-7 l -31,-6 -37,109 c -20,59 -39,115 -42,124 -4,12 12,23 68,47 305,130 664,134 1036,11 51,-17 95,-29 98,-26 22,22 -156,120 -306,168 -253,81 -546,72 -825,-27 -147,-53 -139,-53 -159,-4 -15,37 -55,103 -102,168 -16,22 -16,24 37,73 117,108 284,189 474,228 138,28 316,44 442,39 l 105,-4 -28,23 c -40,31 -92,38 -299,38 -130,0 -205,-5 -270,-18 -203,-40 -393,-116 -532,-213 l -63,-44 -46,36 c -26,19 -64,44 -86,55 -22,11 -38,27 -38,37 1,30 92,139 174,206 44,36 124,89 177,116 112,57 267,120 301,121 h 23 l -23,9 c -20,9 -73,15 -202,24 -25,2 -83,0 -130,-4 z m -338,-652 c 106,-56 195,-177 217,-294 11,-56 4,-124 -11,-124 -6,0 -47,7 -92,17 -94,19 -143,13 -183,-22 -33,-27 -36,-26 92,-50 158,-31 300,-81 339,-120 22,-22 12,-40 -69,-126 -91,-96 -95,-109 -44,-159 21,-21 39,-40 39,-42 0,-2 4,-17 9,-35 8,-27 5,-37 -21,-73 -38,-51 -68,-129 -68,-176 0,-19 9,-52 20,-74 45,-87 160,-140 385,-176 38,-6 39,-7 15,-16 -40,-15 -633,-4 -700,14 -95,25 -165,71 -195,128 -18,34 -33,141 -41,286 l -7,121 -52,17 c -65,20 -105,51 -105,80 0,40 76,179 141,260 35,43 72,91 82,106 l 18,28 -38,36 c -33,31 -38,41 -37,78 0,24 10,61 22,83 19,38 207,265 219,265 3,0 32,-14 65,-32 z m 695,-803 c 72,-36 123,-115 123,-189 0,-127 -120,-236 -246,-223 -103,11 -182,76 -204,169 -45,185 151,330 327,243 z"
       id="path3801"
       inkscape:connector-curvature="0" />
    <path
       d="m 7000,5293 v -59 l 107,-17 c 134,-21 191,-48 218,-102 20,-39 20,-60 20,-1015 0,-902 -1,-977 -17,-1006 -39,-71 -91,-94 -250,-110 l -68,-6 v -59 -59 h 535 535 v 58 58 l -112,12 c -143,16 -194,39 -225,102 -23,44 -23,49 -23,451 v 406 l 228,6 c 292,7 404,30 572,119 195,103 322,257 376,458 27,100 26,294 -3,385 -60,190 -233,335 -481,403 l -97,26 -657,4 -658,3 z m 1123,-98 c 232,-49 358,-237 360,-535 1,-233 -90,-398 -265,-485 -101,-49 -186,-65 -355,-65 h -143 v 550 550 h 168 c 106,0 192,-6 235,-15 z"
       id="path3803"
       inkscape:connector-curvature="0" />
  </g>
  <path
     style="fill:#2b2200;stroke-width:1.22724974"
     d="m 484.36573,287.20429 c -34.4384,-6.22209 -65.47266,-25.94989 -84.52343,-53.72973 -6.91861,-10.08871 -15.21106,-28.08921 -18.22168,-39.55394 -3.30189,-12.57393 -4.46907,-36.45861 -2.40812,-49.27877 4.09831,-25.49356 18.35906,-52.124598 37.63772,-70.286014 18.48555,-17.414272 39.23376,-28.127054 65.48408,-33.810952 10.81755,-2.342295 40.06045,-2.821312 43.68707,-0.715627 1.47934,0.85893 1.71493,1.36929 0.643,1.392937 -3.36129,0.07417 -25.51394,10.188825 -34.51207,15.757868 -13.89803,8.601652 -29.71241,25.569044 -27.2167,29.20106 1.03666,1.50864 16.12258,11.53188 17.35658,11.53188 0.498,0 4.66908,-2.47196 9.26907,-5.49325 15.21111,-9.990693 38.34528,-18.126026 58.20465,-20.468171 14.83879,-1.750035 41.33223,-0.773985 46.0472,1.696433 3.22274,1.688572 2.18365,1.858815 -15.4329,2.528452 -36.3478,1.381643 -58.7974,8.133786 -77.96395,23.449156 -9.23453,7.379018 -9.47359,8.041108 -5.18953,14.372518 2.00654,2.96545 5.00853,8.01498 6.6711,11.22117 1.71068,3.29902 3.88287,5.82943 5.00418,5.82943 1.08975,0 6.74907,-1.63701 12.5763,-3.6378 17.45799,-5.99424 27.41817,-7.69446 45.53623,-7.77308 18.55466,-0.0805 28.08761,1.58171 43.58764,7.60019 10.13697,3.93609 23.32083,10.94629 22.37156,11.89557 -0.29759,0.29758 -7.49245,-1.3641 -15.98856,-3.69263 -28.64267,-7.85008 -53.49341,-8.69316 -77.41012,-2.62619 -13.74917,3.48776 -25.33226,8.39965 -25.33226,10.74232 0,0.87941 1.71285,6.74028 3.80633,13.02417 l 3.80631,11.42524 3.7215,-0.81737 c 7.82634,-1.71896 36.98274,-1.01483 48.14295,1.16265 13.98153,2.72795 32.31573,8.57368 41.68768,13.29181 7.68112,3.86692 16.93742,9.66323 16.35754,10.24311 -0.18897,0.18896 -5.76909,-1.54675 -12.40027,-3.85714 -18.71527,-6.52064 -33.33541,-9.167 -55.11161,-9.9757 -11.82214,-0.43902 -19.32919,-0.26746 -19.32919,0.44175 0,0.63776 1.59731,3.33934 3.54956,6.00351 3.2317,4.41017 5.05194,9.18026 6.78594,17.78301 0.54774,2.71754 1.62602,3.32581 8.33973,4.70461 15.31413,3.14506 37.90358,14.9128 46.72352,24.34013 2.8227,3.01707 3.12783,3.90302 1.74078,5.05417 -1.3032,1.08156 -3.04089,0.52745 -7.71802,-2.46117 -9.86349,-6.3026 -22.73459,-11.77771 -35.46041,-15.08416 -6.57653,-1.70872 -12.86331,-3.08875 -13.97064,-3.06672 -1.10732,0.022 -5.25491,3.63714 -9.21683,8.0336 l -7.20352,7.99355 7.91314,8.22746 c 4.35222,4.52511 9.33224,10.71264 11.06671,13.75009 4.69905,8.22912 8.92076,20.74668 7.48223,22.1852 -2.32434,2.32433 -25.17997,9.75236 -35.597,11.56894 -12.91463,2.25212 -32.13649,2.19933 -44.99349,-0.12357 z m 42.74095,-37.27634 c 0.40492,-0.65521 -0.52894,-1.45196 -2.07526,-1.77057 -19.5629,-4.03083 -27.85129,-6.97652 -33.44211,-11.88532 -8.03599,-7.0557 -8.67724,-16.59533 -1.84022,-27.3762 4.66814,-7.36088 4.65498,-11.75061 -0.0513,-17.11076 -2.02496,-2.30629 -3.68175,-5.14369 -3.68175,-6.30531 0,-1.16162 3.31357,-5.95245 7.36349,-10.64633 4.04993,-4.69387 7.36351,-9.24563 7.36351,-10.11505 0,-4.97521 -18.22348,-12.09587 -41.10812,-16.06263 l -4.90425,-0.8501 2.89252,-2.34222 c 3.28421,-2.65939 12.00263,-3.08992 20.92499,-1.0333 6.83886,1.57637 7.77951,0.40984 7.05505,-8.74921 -1.00056,-12.64973 -10.6978,-26.91017 -22.76552,-33.47825 l -6.0911,-3.315188 -5.00807,5.343218 c -7.63575,8.14676 -16.17166,19.4144 -18.043,23.81728 -2.64464,6.22231 -2.08599,10.24058 2.0115,14.4681 l 3.68997,3.8071 -8.29216,10.98658 c -9.96783,13.20673 -15.37685,23.54928 -14.82712,28.35081 0.32452,2.83461 1.65192,4.11711 7.13483,6.89352 3.70488,1.87606 7.07517,4.36125 7.48953,5.52263 0.41437,1.16138 1.11707,7.91036 1.56156,14.99773 1.38837,22.13737 3.2692,26.4189 14.22192,32.37479 4.70735,2.55978 9.08046,3.78154 15.8584,4.43053 14.47547,1.38603 63.71315,1.42275 64.5627,0.0481 z m 7.4812,-28.32174 c 9.5176,-5.88219 13.1454,-19.07718 8.01171,-29.14005 -8.22045,-16.11342 -33.09472,-16.01182 -41.46231,0.16934 -2.50383,4.84185 -2.54132,15.10645 -0.0725,19.85407 6.12945,11.7873 22.15171,16.14458 33.52313,9.11664 z"
     id="path3815"
     inkscape:connector-curvature="0" />
  <path
     style="fill:#2b2200;stroke-width:1.22724974"
     d="m 827.19149,320.03029 c 0,-3.47673 0.51225,-6.32134 1.13843,-6.32134 5.48857,0 21.43065,-3.12311 25.84575,-5.06327 6.75135,-2.96679 10.3674,-6.24735 14.3508,-13.01946 2.99272,-5.08776 3.07972,-5.96181 4.15447,-41.72649 1.41158,-46.97476 3.0888,-53.92982 16.30545,-67.61737 7.64355,-7.91587 13.43348,-11.0112 30.26798,-16.18138 7.07685,-2.17343 13.33605,-4.38318 13.90927,-4.91055 0.5733,-0.52737 0.717,-1.98406 0.31928,-3.23708 -0.5271,-1.66072 -3.56415,-3.01267 -11.20493,-4.98789 -26.79247,-6.92611 -41.22367,-19.44212 -46.59592,-40.412 -1.27125,-4.96229 -2.23748,-18.429528 -3.02828,-42.211034 -0.63885,-19.208084 -1.77652,-37.030627 -2.52832,-39.605662 -3.14775,-10.781872 -15.8646,-18.042352 -35.04278,-20.007217 l -8.0073,-0.820372 0.36488,-6.2676382 0.3648,-6.267637 11.35665,0.291382 c 20.66385,0.53019 37.9815,5.654655 47.5386,14.0671502 7.1133,6.26139 10.80697,11.997413 14.20245,22.05555 2.4912,7.37934 2.60062,9.604102 2.1933,44.584402 -0.47295,40.613556 -0.12135,43.380256 6.66135,52.413316 5.23245,6.96846 16.77915,12.75553 30.40477,15.23853 5.70233,1.03913 11.63258,2.13617 13.17825,2.43786 2.69123,0.52528 2.79525,0.97352 2.45453,10.57425 l -0.35588,10.0257 -10.44405,1.50454 c -21.33187,3.07301 -32.352,9.47404 -38.44215,22.32915 l -3.8856,8.20162 v 41.11287 41.11286 l -3.80767,8.03526 c -5.3028,11.19027 -10.31423,16.40038 -20.55105,21.36577 -10.04198,4.87086 -23.049,7.7838 -39.61575,8.87205 l -11.50133,0.75549 z"
     id="path3817"
     inkscape:connector-curvature="0" />
  <path
     style="fill:#2b0000;stroke-width:1.22724974"
     d="m 117.84113,328.78235 c -14.14648,-1.15789 -30.410822,-4.28626 -36.298982,-6.98196 -11.55995,-5.29231 -20.61572,-15.43453 -25.88897,-28.9949 -1.86843,-4.80476 -2.138797,-10.56414 -2.187307,-46.59527 l -0.05535,-41.11287 -3.035655,-5.94317 C 44.291046,187.24334 33.443939,181.0421 13.028835,177.80369 L 0.0251547,175.74092 v -10.01507 -10.01508 l 7.056685,-0.80675 c 8.9724293,-1.0258 23.1122733,-4.67008 28.0426013,-7.22749 6.660975,-3.4551 14.957422,-12.95554 17.193997,-19.68925 1.820138,-5.47991 1.970925,-9.95752 1.245023,-36.970228 C 52.381341,47.027427 54.454963,35.440482 65.746243,22.942385 76.015548,11.575497 91.062048,6.2710998 119.98882,3.8200618 l 8.89756,-0.753915 v 6.800805 c 0,7.6813882 1.25156,6.8832232 -14.47894,9.2337082 -16.017012,2.393295 -25.141692,9.053107 -28.489642,20.793659 -0.69532,2.438325 -1.79768,21.11454 -2.44969,41.50269 -0.99748,31.190611 -1.54702,38.020871 -3.46523,43.069191 -6.61603,17.41197 -20.457485,28.65016 -42.780619,34.73456 -11.904823,3.24479 -13.879359,4.26828 -13.879359,7.19432 0,1.78045 1.651016,2.79016 7.056685,4.31568 27.442243,7.74438 38.609763,14.96759 46.264193,29.92393 5.2988,10.35357 5.70229,13.43141 6.80594,51.91614 0.99593,34.72837 1.28837,38.1215 3.78608,43.92756 5.03442,11.70283 15.201952,17.58125 33.322052,19.26533 l 8.30853,0.77219 v 6.57365 c 0,6.06247 -0.21472,6.55696 -2.76132,6.35923 -1.51872,-0.11794 -5.24649,-0.41782 -8.28393,-0.66644 z"
     id="path3819"
     inkscape:connector-curvature="0" />
  <path
     style="fill:#2b0000;stroke-width:1.22724974"
     d="m 827.43104,320.23936 0.37403,-5.74209 12.27255,-2.31374 c 7.0569,-1.33045 14.4075,-3.55835 17.29627,-5.24235 5.2977,-3.0883 10.72538,-9.32784 12.75278,-14.66032 0.66645,-1.75287 1.78582,-17.39202 2.48752,-34.75366 2.007,-49.65772 3.5994,-57.02768 15.06173,-69.70622 6.61807,-7.32026 15.48562,-12.25656 31.55925,-17.56811 6.41242,-2.11896 12.48727,-4.38048 13.49977,-5.02559 3.66008,-2.33206 -0.61792,-5.37256 -12.99262,-9.23419 -22.0212,-6.87189 -33.27495,-15.15567 -39.94058,-29.39985 -4.69597,-10.03509 -5.51025,-16.30976 -7.17195,-55.266106 -0.74865,-17.54967 -1.89495,-33.91878 -2.54745,-36.375795 -2.6124,-9.837247 -15.03157,-17.410559 -32.35102,-19.727879 l -10.53983,-1.410218 0.0187,-4.3788002 c 0.033,-7.613242 0.6333,-7.888387 15.50528,-7.102732 35.09692,1.854105 53.96887,14.9867472 59.46742,41.3823072 0.93623,4.494525 1.20975,16.591365 0.81848,36.203864 -0.32318,16.199701 -0.12135,33.262839 0.44857,37.918099 2.23088,18.22336 12.85493,27.43605 36.98295,32.06999 15.53475,2.98354 15.61973,3.04289 15.61973,10.90419 0,11.48602 -0.7158,12.30148 -12.3633,14.08452 -20.23313,3.09734 -31.11728,9.86831 -37.92758,23.59452 l -3.49552,7.04519 -0.1131,41.50796 -0.11303,41.50798 -3.62812,7.41891 c -6.35858,13.00236 -16.7757,20.8591 -33.78945,25.48442 -7.36913,2.00336 -25.8786,4.49878 -33.50978,4.51772 l -4.05577,0.0101 z"
     id="path3821"
     inkscape:connector-curvature="0" />
  <path
     style="fill:#2b0000;stroke-width:1.22724974"
     d="M 490.31142,287.91728 C 431.76159,280.4539 384.92133,233.37613 379.18159,176.22393 c -2.48826,-24.77627 0.64341,-42.95366 11.12469,-64.57185 16.59763,-34.233484 44.39936,-57.256533 82.82365,-68.587571 9.11693,-2.68851 14.38641,-3.37398 30.18325,-3.926302 10.64203,-0.37209 20.02428,-0.173145 21.13445,0.448132 1.5416,0.862725 -0.7216,2.29467 -9.93363,6.285105 -6.56154,2.842305 -15.51979,7.244303 -19.90721,9.78222 -9.55587,5.52762 -29.45399,24.638865 -29.45399,28.289218 0,1.58921 2.14709,4.07454 5.82944,6.74781 10.8078,7.84613 10.5093,7.81198 19.72167,2.25609 16.05709,-9.68387 31.9707,-15.876643 51.152,-19.905778 13.23072,-2.779185 55.94732,-1.798208 54.06856,1.241677 -0.32534,0.526433 -7.92964,1.30566 -16.89843,1.731623 -27.62846,1.312185 -47.57094,6.041257 -64.0123,15.179608 -8.45827,4.70123 -20.40695,14.417018 -20.40695,16.593428 0,2.41134 12.44756,23.06143 13.89879,23.05765 0.79302,-0.002 7.52937,-1.87461 14.96969,-4.16121 19.43842,-5.97394 29.44286,-7.29425 49.9102,-6.58677 14.71119,0.5085 19.25299,1.15308 27.99205,3.97266 10.76483,3.47318 31.65899,13.20303 29.73196,13.84537 -0.59851,0.19951 -7.94724,-1.31572 -16.33052,-3.36717 -29.49466,-7.21756 -53.39363,-7.60465 -77.53311,-1.2558 -11.97179,3.14867 -23.00306,7.97561 -23.00306,10.06541 0,0.87921 1.70313,6.71076 3.78473,12.95899 3.65649,10.9755 3.89559,11.33866 7.05669,10.71795 7.16487,-1.40686 36.11109,-0.67186 48.68019,1.23609 5.13752,0.77985 18.18621,4.51167 28.52382,8.15759 10.67466,3.76479 29.1791,13.10191 28.10138,14.17962 -0.30953,0.30954 -5.811,-1.11836 -12.22549,-3.1731 -14.45025,-4.62884 -25.38545,-7.07745 -38.84489,-8.69815 -10.82718,-1.30374 -34.39519,-1.72462 -34.39519,-0.61423 0,0.35091 1.44074,2.92031 3.20165,5.70976 1.76091,2.78947 4.38416,8.70436 5.82944,13.14421 l 2.62779,8.07248 9.81799,2.70133 c 17.94151,4.93644 46.02187,21.3476 46.02187,26.89682 0,2.66973 -1.43717,2.22798 -14.38133,-4.42044 -12.31919,-6.32742 -24.97799,-10.85856 -37.54163,-13.4378 -7.0666,-1.45072 -7.15551,-1.43328 -10.26512,2.01342 -1.72522,1.91225 -5.08382,5.51216 -7.46356,7.99979 l -4.32677,4.52297 8.21705,8.97678 c 9.21857,10.07089 16.91667,24.1243 17.14068,31.29152 0.14089,4.50773 -0.0216,4.68376 -6.84858,7.41896 -20.12568,8.06328 -46.06008,11.52884 -66.64209,8.90524 z m 36.01545,-37.83415 c 1.13685,-0.75401 -1.16076,-1.77998 -7.3635,-3.28808 -21.33609,-5.18754 -28.20986,-8.93145 -31.95899,-17.40698 -2.8284,-6.39407 -2.30436,-10.02175 2.9606,-20.49475 4.19568,-8.34598 4.00023,-12.01452 -0.98856,-18.55515 -3.20057,-4.19616 -3.20469,-4.23069 -0.93983,-7.87584 1.25116,-2.01365 4.68371,-6.71182 7.62791,-10.44036 3.3342,-4.22247 5.07398,-7.50647 4.61306,-8.70761 -1.35959,-3.54306 -18.76613,-10.1541 -38.19288,-14.50576 l -7.3635,-1.64944 4.909,-2.18492 c 4.18062,-1.86072 6.33189,-2.0191 14.49873,-1.06743 11.63136,1.35541 12.54839,0.68369 11.47217,-8.40332 -1.51874,-12.8234 -12.19525,-28.02007 -23.87014,-33.97615 l -4.98956,-2.545488 -7.14635,7.802308 c -10.18203,11.11663 -16.46246,20.70181 -17.20843,26.26348 -0.54317,4.04965 -0.0814,5.40739 3.05355,8.97787 l 3.6935,4.20667 -6.28472,8.56934 c -8.89634,12.13033 -16.78612,26.34106 -16.78612,30.23445 0,2.73221 1.27778,4.092 7.26002,7.72602 8.04417,4.88658 7.81622,4.33257 9.36759,22.76698 1.06243,12.62454 2.66011,19.38161 5.53847,23.42389 3.54433,4.97755 14.18252,9.73964 24.05403,10.76757 12.75536,1.32824 62.16628,1.60806 64.04395,0.3627 z m 6.66007,-27.75452 c 8.25574,-3.9176 13.80396,-16.37589 11.45711,-25.72647 -1.02285,-4.07536 -7.47797,-11.36415 -12.24966,-13.83169 -8.97166,-4.63942 -23.23885,-1.10009 -29.17598,7.23784 -4.02461,5.65206 -4.6483,18.3807 -1.17205,23.91995 6.25236,9.96281 20.02095,13.67698 31.14058,8.40037 z"
     id="path3823"
     inkscape:connector-curvature="0" />
</svg>
